<svg xmlns="http://www.w3.org/2000/svg" xmlns:xlink="http://www.w3.org/1999/xlink" viewBox="0,0,256,256" width="64px" height="64px" fill-rule="nonzero"><g fill="none" fill-rule="nonzero" stroke="none" stroke-width="1" stroke-linecap="butt" stroke-linejoin="miter" stroke-miterlimit="10" stroke-dasharray="" stroke-dashoffset="0" font-family="none" font-weight="none" font-size="none" text-anchor="none" style="mix-blend-mode: normal"><g transform="scale(4,4)"><path d="M7,21h52v34h-52z" fill="#f9d7ef"></path><path d="M7,21h52v4h-52zM11,50h44c2.20914,0 4,1.79086 4,4v1h-52v-1c0,-2.20914 1.79086,-4 4,-4z" fill="#efd8be"></path><path d="M5,11h56v10h-56z" fill="#f9d7ef"></path><rect x="23" y="27" width="20" height="6" rx="3" ry="3" fill="#ffffff"></rect><path d="M5,11h56v1c0,1.65685 -1.34315,3 -3,3h-50c-1.65685,0 -3,-1.34315 -3,-3z" fill="#fff5ec"></path><path d="M59,10.06h-52c-1.65685,0 -3,1.34315 -3,3v6c-0.00067,1.27193 0.80082,2.40602 2,2.83v31.17c0,1.65685 1.34315,3 3,3h48c1.65685,0 3,-1.34315 3,-3v-31.17c1.19918,-0.42398 2.00067,-1.55807 2,-2.83v-6c0,-1.65685 -1.34315,-3 -3,-3zM60,19.06c0,0.55228 -0.44772,1 -1,1h-4c-0.55228,0 -1,0.44772 -1,1c0,0.55228 0.44772,1 1,1h3v31c0,0.55228 -0.44772,1 -1,1h-48c-0.55228,0 -1,-0.44772 -1,-1v-31h35c0.55228,0 1,-0.44772 1,-1c0,-0.55228 -0.44772,-1 -1,-1h-36c-0.55228,0 -1,-0.44772 -1,-1v-6c0,-0.55228 0.44772,-1 1,-1h52c0.55228,0 1,0.44772 1,1z" fill="#8d6c9f"></path><path d="M18,48.06c-0.55228,0 -1,0.44772 -1,1v2c0,0.55228 0.44772,1 1,1c0.55228,0 1,-0.44772 1,-1v-2c0,-0.55228 -0.44772,-1 -1,-1zM13,48.06c-0.55228,0 -1,0.44772 -1,1v2c0,0.55228 0.44772,1 1,1c0.55228,0 1,-0.44772 1,-1v-2c0,-0.55228 -0.44772,-1 -1,-1zM23,48.06c-0.55228,0 -1,0.44772 -1,1v2c0,0.55228 0.44772,1 1,1c0.55228,0 1,-0.44772 1,-1v-2c0,-0.55228 -0.44772,-1 -1,-1zM28,48.06c-0.55228,0 -1,0.44772 -1,1v2c0,0.55228 0.44772,1 1,1c0.55228,0 1,-0.44772 1,-1v-2c0,-0.55228 -0.44772,-1 -1,-1zM33,48.06c-0.55228,0 -1,0.44772 -1,1v2c0,0.55228 0.44772,1 1,1c0.55228,0 1,-0.44772 1,-1v-2c0,-0.55228 -0.44772,-1 -1,-1zM38,48.06c-0.55228,0 -1,0.44772 -1,1v2c0,0.55228 0.44772,1 1,1c0.55228,0 1,-0.44772 1,-1v-2c0,-0.55228 -0.44772,-1 -1,-1zM43,48.06c-0.55228,0 -1,0.44772 -1,1v2c0,0.55228 0.44772,1 1,1c0.55228,0 1,-0.44772 1,-1v-2c0,-0.55228 -0.44772,-1 -1,-1zM48,48.06c-0.55228,0 -1,0.44772 -1,1v2c0,0.55228 0.44772,1 1,1c0.55228,0 1,-0.44772 1,-1v-2c0,-0.55228 -0.44772,-1 -1,-1zM53,48.06c-0.55228,0 -1,0.44772 -1,1v2c0,0.55228 0.44772,1 1,1c0.55228,0 1,-0.44772 1,-1v-2c0,-0.55228 -0.44772,-1 -1,-1zM51,20.06h-4c-0.55228,0 -1,0.44772 -1,1c0,0.55228 0.44772,1 1,1h4c0.55228,0 1,-0.44772 1,-1c0,-0.55228 -0.44772,-1 -1,-1zM40,26h-14c-2.20914,0 -4,1.79086 -4,4c0,2.20914 1.79086,4 4,4h14c2.20914,0 4,-1.79086 4,-4c0,-2.20914 -1.79086,-4 -4,-4zM40,32h-14c-1.10457,0 -2,-0.89543 -2,-2c0,-1.10457 0.89543,-2 2,-2h14c1.10457,0 2,0.89543 2,2c0,1.10457 -0.89543,2 -2,2z" fill="#8d6c9f"></path></g></g></svg>